<svg xmlns="http://www.w3.org/2000/svg" viewBox="0 0 1200 234"><path d="M625.5 3.4c-12.2-17.2-30.4-28.6-51.1-32.1-20.7-3.5-41.6 1.3-58.8 13.5-17.3 12.2-28.7 30.3-32.2 51.1-3.5 20.7 1.3 41.6 13.5 58.8 12.2 17.2 30.4 28.6 51.1 32.1 4.4.7 8.8 1.1 13.2 1.1 37.8 0 71.3-27.3 77.8-65.8 3.5-20.6-1.3-41.5-13.5-58.7zM497.4 45.9l55 9.3-1 5.7c-17.5-1.5-34.7 2-50.2 10.1-2.9-8-4.2-16.6-3.8-25.1zM549 75.8l-5.8 34.4c-14.4-4.2-26.7-13.2-35-25.8 12.5-6.6 26.5-9.6 40.8-8.6zm17.4-12.4l1-5.7 55 9.3c-2.4 8.2-6.5 15.8-11.9 22.4-12-12.7-27.1-21.7-44.1-26zm-2.5 14.9c13.8 3.7 26 11.1 35.8 21.6-12 9.1-26.6 13.6-41.6 12.8l5.8-34.4zM500 31c2.4-8.1 6.4-15.7 11.7-22.2 12 12.8 27.2 21.7 44.3 25.9l-1 5.6-55-9.3zm22.5-32.7c12.1-9.2 26.7-13.8 41.8-13l-5.8 34.5c-13.9-3.7-26.2-11-36-21.5zm48.3 38.9c17.5 1.4 34.7-2.1 50.1-10.3 3 8.1 4.4 16.7 3.9 25.4l-55-9.3 1-5.8zm2.5-15l5.8-34.4C593.5-8 605.7 1 614 13.4c-12.5 6.7-26.5 9.7-40.7 8.8z" fill="#E20203"/><g fill="#FFF"><path d="M95.3 82.5l.1 144c0 1.7-1.3 3.1-3 3.2l-25.5 1.5c-1.5.1-3-1.1-3-2.8v-56.2l-32.2 1.9v56.2c0 1.7-1.5 3.1-3 3.2L3.1 235c-1.7.1-3-1.1-3-2.8L0 88.1c0-1.7 1.3-3.1 3-3.2l25.5-1.5c1.5-.1 3 1.1 3 2.8v56.2l32.2-1.9V84.3c0-1.7 1.5-3.1 3-3.2l25.5-1.5c1.8 0 3.1 1.2 3.1 2.9zM202.9 203.3s.4 3-2.1 5.7l-12.2 12.7c-2.6 2.7-5.4 2.7-5.4 2.7l-55.6 3.3s-3 .4-5.6-2l-12-11.3c-2.6-2.4-2.4-5.4-2.4-5.4l-.1-110.1s-.2-3 2.4-5.7l12-12.7c2.6-2.9 5.6-2.7 5.6-2.7l55.4-3.2s3-.6 5.6 2l12.2 11.3c2.6 2.4 2.1 5.5 2.1 5.5l.1 109.9zm-58.2-95.1c-.2 0-.9.1-1.3.7l-3.7 3.6c-.6.9-.6 1.8-.6 1.8v76.6c0 .4.2.8.6 1.5l3 2.8 24.9-1.5 3-3.2c.6-.7.6-1.1.6-1.5v-76.6s.2-.9-.6-1.7l-3.4-3.2c-.6-.6-1.3-.6-1.5-.5l-21 1.2zM309.4 197.1s.4 3-2.1 5.7l-12.2 12.7c-2.6 2.7-5.4 2.7-5.4 2.7l-55.6 3.3s-3 .4-5.6-2l-12-11.3c-2.6-2.4-2.4-5.4-2.4-5.4L214 92.7s-.2-3 2.4-5.7l12-12.7c2.6-2.9 5.6-2.7 5.6-2.7l55.4-3.2s3-.6 5.6 2l12.2 11.3c2.6 2.4 2.1 5.5 2.1 5.5l.1 109.9zM251.2 102c-.2 0-.9.1-1.3.7l-3.7 3.6c-.6.9-.6 1.8-.6 1.8v76.6c0 .4.2.8.6 1.5l3 2.8 24.9-1.5 3-3.2c.6-.7.6-1.1.6-1.5v-76.6s.2-.9-.6-1.7l-3.4-3.2c-.6-.6-1.3-.6-1.5-.5l-21 1.2zM413.8 135.4l-.2.2h.2s.2 3-2.4 5.7l-12 12.9c-2.6 2.7-5.6 2.5-5.6 2.5l-39.7 2.3v52.2c0 1.5-1.5 3.1-3.2 3.2l-25.3 1.5c-1.7.1-3-1.3-3-2.8l-.1-144c0-1.7 1.3-3.1 3-3.2l68.2-4s3-.6 5.6 1.8l12 11.5c2.6 2.4 2.4 5.4 2.4 5.4l.1 54.8zm-59.7-7.9l22.1-1.3s.9.2 1.7-.7l3.6-3.6c.6-.9.6-1.8.6-1.8V99.9s0-.9-.6-1.5l-3.6-3.4c-.9-.6-1.7-.5-1.7-.5l-22.1 1.3v31.7zM522.8 74.5l.2.2v22.1c0 1.7-1.5 3.1-3.2 3.2l-25.3 1.5c-1.7.1-3-1.1-3-2.8V88l-26.6 1.6c-.4 0-.9.1-1.5.7l-3.4 3.6c-.9.9-.9 1.8-.9 1.8v17.4l.2-.2s-.2.9.6 1.7l3 2.8 40.1-2.3s3-.6 5.6 2l12 11.3c2.6 2.4 2.4 5.4 2.4 5.4v50.9s.2 3-2.4 5.7l-12 12.7c-2.6 2.7-5.6 2.7-5.6 2.7l-55.6 3.3s-3 .4-5.6-2l-12-11.3c-2.6-2.4-2.2-5.4-2.2-5.4s-.2-.2-.2-.4v-20.8c0-1.7 1.5-3.1 3.2-3.2l25.3-1.5c1.7-.1 3 1.1 3 2.8v9.7l27-1.6c.4 0 .6-.2 1.1-.7l3.7-3.6c.6-.9.6-1.8.6-1.8v-16.1s0-.9-.6-1.7l-3.7-3.2c-.4-.4-.6-.6-1.1-.6l-38.6 2.3s-3 .4-5.6-2l-12-11.3c-2.6-2.4-2.2-5.5-2.2-5.5h-.2V80.3h.2s-.4-3 2.1-5.7l12-12.7c2.6-2.9 5.6-2.7 5.6-2.7l55.6-3.3s3-.6 5.6 2l12 11.3c2.6 2.4 2.4 5.4 2.4 5.4v-.1z"/><g><path d="M642.1 234.1v.6c-.2.9-.6 1.5-1.3 2-.2 0-.2.2-.4.2 0 0-.2.2-.6.2 0 0-.2.2-.4.2l-26.8 1.6c-1.5.1-2.6-1.1-3-2.8L594.4 183l-1.5-10.6-1.3 10.8-16.7 55.1c-.6 2-1.5 3.1-3.2 3.2l-26.8 1.6c-.2 0-.2-.2-.4-.2s-.4-.2-.6-.2c-.2 0-.2-.2-.2-.2-.9-.4-1.3-1-1.3-1.9-.2 0-.2-.2-.2-.2v-.4L530.6 97.2c0-1.5 1.3-3.1 3-3.2l25.3-1.5c1.7-.1 3.2 1.3 3.2 2.8l5.2 72.7 12.2-64.5c.6-1.5 2.1-3.1 3.9-3.2l17.2-1c1.7-.1 3.2 1.3 4.1 2.8l12.1 63.1 5.3-73.3c0-1.5 1.3-3.1 3-3.2l25.5-1.5c1.5-.1 3 1.3 3 2.8l-11.5 144.1zM757.6 210.6s.4 3-2.1 5.7L743.3 229c-2.6 2.7-5.4 2.7-5.4 2.7l-55.6 3.3s-3 .4-5.6-2l-12-11.3c-2.6-2.4-2.4-5.4-2.4-5.4l-.1-110.1s-.2-3 2.4-5.7l12-12.7c2.6-2.9 5.6-2.7 5.6-2.7l55.4-3.2s3-.6 5.6 2L755.4 95c2.6 2.4 2.1 5.5 2.1 5.5l.1 110.1zm-58.2-95.1c-.2 0-.9.1-1.3.7l-3.7 3.6c-.6.9-.6 1.8-.6 1.8v76.6c0 .4.2.8.6 1.5l3 2.8 24.9-1.5 3-3.2c.6-.7.6-1.1.6-1.5v-76.6s.2-.9-.6-1.7l-3.4-3.2c-.6-.6-1.3-.6-1.5-.5l-21 1.2zM861.5 149.3s.4 3-2.1 5.7l-12.2 13-.6.5 21.9 52.6c.4 1.5-1.5 3.1-3 3.2l-28.8 1.7c-1.7.1-3.2-1.3-3.9-2.8l-21.1-50.9-9.9.6v52.2c0 1.5-1.3 3.1-3 3.2l-25.5 1.5c-1.5.1-3-1.3-3-2.8l-.1-144c0-1.7 1.5-3.1 3-3.2l68.3-4s3-.6 5.6 1.8l12.2 11.5c2.6 2.4 2.2 5.9 2.2 5.9v54.3zm-59.6-8l22.5-1.3c.2 0 .9-.1 1.5-.7l3.4-3.6c.9-.9.6-1.8.6-1.8v-20.2s.2-.9-.6-1.7l-3.4-3.2c-.9-.8-1.7-.5-1.7-.5l-22.3 1.3v31.7zM959.1 71.9v25.3c0 1.7-1.5 3.1-3.2 3.2l-27.3 1.6.1 115.5c-.2 1.5-1.5 2.7-3 2.8l-25.3 1.5c-1.5.1-2.8-.9-3-2.4l-.1-115.5-27.3 1.6c-1.7.1-3.2-1.1-3.2-2.8V77.4c0-1.7 1.5-3.3 3.2-3.4l85.9-5c1.7-.2 3.2 1.2 3.2 2.9zM1060.7 65l.1 144c0 1.7-1.3 3.1-3 3.2l-25.5 1.5c-1.5.1-3-1.1-3-2.8v-56.2l-32.2 1.9v56.2c0 1.7-1.5 3.1-3 3.2l-25.5 1.5c-1.7.1-3-1.1-3-2.8l-.1-144c0-1.7 1.3-3.1 3-3.2L994 66c1.5-.1 3 1.1 3 2.8V125l32.2-1.9V66.9c0-1.7 1.5-3.1 3-3.2l25.5-1.5c1.7-.2 2.9 1.1 3 2.8zM1174.2 58.8c-.4.9-.6 1.5-1.1 2l-38.8 77.6v65.9c0 1.7-1.3 3.1-3 3.2l-25.5 1.5c-1.5.1-3-1.1-3-2.8v-65.9l-38.9-73.1c-.2-.4-.6-1-.9-1.9-.6-1.5 1.3-3.1 3-3.2l27.7-1.6c1.7-.1 3.2 1.3 3.9 2.8l21.1 40.6 20.8-43.1c.9-1.6 2.4-3.1 4.1-3.2l27.5-1.6c1.6-.2 3.5 1.2 3.1 2.8z"/></g></g><g fill="#FFF"><path d="M1191.3 54.5v1.4h-2.4v6.6h-1.7v-6.6h-2.4v-1.4h6.5zM1197.6 54.5h2.4v8h-1.6v-5.4-.7-.6l-1.5 6.7h-1.6l-1.5-6.7v6.7h-1.6v-8h2.4l1.5 6.3 1.5-6.3z"/></g></svg>