<?xml version="1.0" encoding="utf-8"?>
<!-- Generator: Adobe Illustrator 19.1.0, SVG Export Plug-In . SVG Version: 6.00 Build 0)  -->
<!DOCTYPE svg PUBLIC "-//W3C//DTD SVG 1.1//EN" "http://www.w3.org/Graphics/SVG/1.1/DTD/svg11.dtd">
<svg version="1.1" id="Lockup" xmlns="http://www.w3.org/2000/svg" xmlns:xlink="http://www.w3.org/1999/xlink" x="0px" y="0px"
	 viewBox="0 0 1200 234" style="enable-background:new 0 0 1200 234;" xml:space="preserve">
<path style="fill:#E20203;" d="M625.5,3.4c-12.2-17.2-30.4-28.6-51.1-32.1c-20.7-3.5-41.6,1.3-58.8,13.5
	C498.3-3,486.9,15.1,483.4,35.9c-3.5,20.7,1.3,41.6,13.5,58.8c12.2,17.2,30.4,28.6,51.1,32.1c4.4,0.7,8.8,1.1,13.2,1.1
	c37.8,0,71.3-27.3,77.8-65.8C642.5,41.5,637.7,20.6,625.5,3.4z M497.4,45.9l55,9.3l-1,5.7c-17.5-1.5-34.7,2-50.2,10.1
	C498.3,63,497,54.4,497.4,45.9z M549,75.8l-5.8,34.4c-14.4-4.2-26.7-13.2-35-25.8C520.7,77.8,534.7,74.8,549,75.8z M566.4,63.4
	l1-5.7l55,9.3c-2.4,8.2-6.5,15.8-11.9,22.4C598.5,76.7,583.4,67.7,566.4,63.4z M563.9,78.3c13.8,3.7,26,11.1,35.8,21.6
	c-12,9.1-26.6,13.6-41.6,12.8L563.9,78.3z M500,31c2.4-8.1,6.4-15.7,11.7-22.2c12,12.8,27.2,21.7,44.3,25.9l-1,5.6L500,31z
	 M522.5-1.7c12.1-9.2,26.7-13.8,41.8-13l-5.8,34.5C544.6,16.1,532.3,8.8,522.5-1.7z M570.8,37.2c17.5,1.4,34.7-2.1,50.1-10.3
	c3,8.1,4.4,16.7,3.9,25.4l-55-9.3L570.8,37.2z M573.3,22.2l5.8-34.4C593.5-8,605.7,1,614,13.4C601.5,20.1,587.5,23.1,573.3,22.2z"/>
<g>
	<g>
		<path style="fill:#FFFFFF;" d="M95.3,82.5l0.1,144c0,1.7-1.3,3.1-3,3.2l-25.5,1.5c-1.5,0.1-3-1.1-3-2.8l0-56.2l-32.2,1.9l0,56.2
			c0,1.7-1.5,3.1-3,3.2L3.1,235c-1.7,0.1-3-1.1-3-2.8L0,88.1c0-1.7,1.3-3.1,3-3.2l25.5-1.5c1.5-0.1,3,1.1,3,2.8l0,56.2l32.2-1.9
			l0-56.2c0-1.7,1.5-3.1,3-3.2l25.5-1.5C94,79.6,95.3,80.8,95.3,82.5z"/>
		<path style="fill:#FFFFFF;" d="M202.9,203.3c0,0,0.4,3-2.1,5.7l-12.2,12.7c-2.6,2.7-5.4,2.7-5.4,2.7l-55.6,3.3c0,0-3,0.4-5.6-2
			l-12-11.3c-2.6-2.4-2.4-5.4-2.4-5.4l-0.1-110.1c0,0-0.2-3,2.4-5.7l12-12.7c2.6-2.9,5.6-2.7,5.6-2.7l55.4-3.2c0,0,3-0.6,5.6,2
			l12.2,11.3c2.6,2.4,2.1,5.5,2.1,5.5L202.9,203.3z M144.7,108.2c-0.2,0-0.9,0.1-1.3,0.7l-3.7,3.6c-0.6,0.9-0.6,1.8-0.6,1.8l0,76.6
			c0,0.4,0.2,0.8,0.6,1.5l3,2.8l24.9-1.5l3-3.2c0.6-0.7,0.6-1.1,0.6-1.5l0-76.6c0,0,0.2-0.9-0.6-1.7l-3.4-3.2
			c-0.6-0.6-1.3-0.6-1.5-0.5L144.7,108.2z"/>
		<path style="fill:#FFFFFF;" d="M309.4,197.1c0,0,0.4,3-2.1,5.7l-12.2,12.7c-2.6,2.7-5.4,2.7-5.4,2.7l-55.6,3.3c0,0-3,0.4-5.6-2
			l-12-11.3c-2.6-2.4-2.4-5.4-2.4-5.4l-0.1-110.1c0,0-0.2-3,2.4-5.7l12-12.7c2.6-2.9,5.6-2.7,5.6-2.7l55.4-3.2c0,0,3-0.6,5.6,2
			l12.2,11.3c2.6,2.4,2.1,5.5,2.1,5.5L309.4,197.1z M251.2,102c-0.2,0-0.9,0.1-1.3,0.7l-3.7,3.6c-0.6,0.9-0.6,1.8-0.6,1.8l0,76.6
			c0,0.4,0.2,0.8,0.6,1.5l3,2.8l24.9-1.5l3-3.2c0.6-0.7,0.6-1.1,0.6-1.5l0-76.6c0,0,0.2-0.9-0.6-1.7l-3.4-3.2
			c-0.6-0.6-1.3-0.6-1.5-0.5L251.2,102z"/>
		<path style="fill:#FFFFFF;" d="M413.8,135.4l-0.2,0.2l0.2,0c0,0,0.2,3-2.4,5.7l-12,12.9c-2.6,2.7-5.6,2.5-5.6,2.5l-39.7,2.3
			l0,52.2c0,1.5-1.5,3.1-3.2,3.2l-25.3,1.5c-1.7,0.1-3-1.3-3-2.8l-0.1-144c0-1.7,1.3-3.1,3-3.2l68.2-4c0,0,3-0.6,5.6,1.8l12,11.5
			c2.6,2.4,2.4,5.4,2.4,5.4L413.8,135.4z M354.1,127.5l22.1-1.3c0,0,0.9,0.2,1.7-0.7l3.6-3.6c0.6-0.9,0.6-1.8,0.6-1.8l0-20.2
			c0,0,0-0.9-0.6-1.5l-3.6-3.4c-0.9-0.6-1.7-0.5-1.7-0.5l-22.1,1.3L354.1,127.5z"/>
		<path style="fill:#FFFFFF;" d="M522.8,74.5l0.2,0.2l0,22.1c0,1.7-1.5,3.1-3.2,3.2l-25.3,1.5c-1.7,0.1-3-1.1-3-2.8l0-10.7
			l-26.6,1.6c-0.4,0-0.9,0.1-1.5,0.7l-3.4,3.6c-0.9,0.9-0.9,1.8-0.9,1.8l0,17.4l0.2-0.2c0,0-0.2,0.9,0.6,1.7l3,2.8l40.1-2.3
			c0,0,3-0.6,5.6,2l12,11.3c2.6,2.4,2.4,5.4,2.4,5.4l0,50.9c0,0,0.2,3-2.4,5.7l-12,12.7c-2.6,2.7-5.6,2.7-5.6,2.7l-55.6,3.3
			c0,0-3,0.4-5.6-2l-12-11.3c-2.6-2.4-2.2-5.4-2.2-5.4s-0.2-0.2-0.2-0.4l0-20.8c0-1.7,1.5-3.1,3.2-3.2l25.3-1.5c1.7-0.1,3,1.1,3,2.8
			l0,9.7l27-1.6c0.4,0,0.6-0.2,1.1-0.7l3.7-3.6c0.6-0.9,0.6-1.8,0.6-1.8l0-16.1c0,0,0-0.9-0.6-1.7l-3.7-3.2
			c-0.4-0.4-0.6-0.6-1.1-0.6l-38.6,2.3c0,0-3,0.4-5.6-2l-12-11.3c-2.6-2.4-2.2-5.5-2.2-5.5l-0.2,0l0-50.9l0.2,0c0,0-0.4-3,2.1-5.7
			l12-12.7c2.6-2.9,5.6-2.7,5.6-2.7l55.6-3.3c0,0,3-0.6,5.6,2l12,11.3c2.6,2.4,2.4,5.4,2.4,5.4L522.8,74.5z"/>
	</g>
	<g>
		<path style="fill:#FFFFFF;" d="M642.1,234.1l0,0.6c-0.2,0.9-0.6,1.5-1.3,2c-0.2,0-0.2,0.2-0.4,0.2c0,0-0.2,0.2-0.6,0.2
			c0,0-0.2,0.2-0.4,0.2l-26.8,1.6c-1.5,0.1-2.6-1.1-3-2.8L594.4,183l-1.5-10.6l-1.3,10.8l-16.7,55.1c-0.6,2-1.5,3.1-3.2,3.2
			l-26.8,1.6c-0.2,0-0.2-0.2-0.4-0.2c-0.2,0-0.4-0.2-0.6-0.2c-0.2,0-0.2-0.2-0.2-0.2c-0.9-0.4-1.3-1-1.3-1.9c-0.2,0-0.2-0.2-0.2-0.2
			l0-0.4L530.6,97.2c0-1.5,1.3-3.1,3-3.2l25.3-1.5c1.7-0.1,3.2,1.3,3.2,2.8l5.2,72.7l12.2-64.5c0.6-1.5,2.1-3.1,3.9-3.2l17.2-1
			c1.7-0.1,3.2,1.3,4.1,2.8l12.1,63.1l5.3-73.3c0-1.5,1.3-3.1,3-3.2l25.5-1.5c1.5-0.1,3,1.3,3,2.8L642.1,234.1z"/>
		<path style="fill:#FFFFFF;" d="M757.6,210.6c0,0,0.4,3-2.1,5.7L743.3,229c-2.6,2.7-5.4,2.7-5.4,2.7l-55.6,3.3c0,0-3,0.4-5.6-2
			l-12-11.3c-2.6-2.4-2.4-5.4-2.4-5.4l-0.1-110.1c0,0-0.2-3,2.4-5.7l12-12.7c2.6-2.9,5.6-2.7,5.6-2.7l55.4-3.2c0,0,3-0.6,5.6,2
			L755.4,95c2.6,2.4,2.1,5.5,2.1,5.5L757.6,210.6z M699.4,115.5c-0.2,0-0.9,0.1-1.3,0.7l-3.7,3.6c-0.6,0.9-0.6,1.8-0.6,1.8l0,76.6
			c0,0.4,0.2,0.8,0.6,1.5l3,2.8l24.9-1.5l3-3.2c0.6-0.7,0.6-1.1,0.6-1.5l0-76.6c0,0,0.2-0.9-0.6-1.7l-3.4-3.2
			c-0.6-0.6-1.3-0.6-1.5-0.5L699.4,115.5z"/>
		<path style="fill:#FFFFFF;" d="M861.5,149.3c0,0,0.4,3-2.1,5.7L847.2,168l-0.6,0.5l21.9,52.6c0.4,1.5-1.5,3.1-3,3.2l-28.8,1.7
			c-1.7,0.1-3.2-1.3-3.9-2.8l-21.1-50.9l-9.9,0.6l0,52.2c0,1.5-1.3,3.1-3,3.2l-25.5,1.5c-1.5,0.1-3-1.3-3-2.8l-0.1-144
			c0-1.7,1.5-3.1,3-3.2l68.3-4c0,0,3-0.6,5.6,1.8l12.2,11.5c2.6,2.4,2.2,5.9,2.2,5.9L861.5,149.3z M801.9,141.3l22.5-1.3
			c0.2,0,0.9-0.1,1.5-0.7l3.4-3.6c0.9-0.9,0.6-1.8,0.6-1.8l0-20.2c0,0,0.2-0.9-0.6-1.7l-3.4-3.2c-0.9-0.8-1.7-0.5-1.7-0.5l-22.3,1.3
			L801.9,141.3z"/>
		<path style="fill:#FFFFFF;" d="M959.1,71.9l0,25.3c0,1.7-1.5,3.1-3.2,3.2l-27.3,1.6l0.1,115.5c-0.2,1.5-1.5,2.7-3,2.8l-25.3,1.5
			c-1.5,0.1-2.8-0.9-3-2.4l-0.1-115.5l-27.3,1.6c-1.7,0.1-3.2-1.1-3.2-2.8l0-25.3c0-1.7,1.5-3.3,3.2-3.4l85.9-5
			C957.6,68.8,959.1,70.2,959.1,71.9z"/>
		<path style="fill:#FFFFFF;" d="M1060.7,65l0.1,144c0,1.7-1.3,3.1-3,3.2l-25.5,1.5c-1.5,0.1-3-1.1-3-2.8l0-56.2l-32.2,1.9l0,56.2
			c0,1.7-1.5,3.1-3,3.2l-25.5,1.5c-1.7,0.1-3-1.1-3-2.8l-0.1-144c0-1.7,1.3-3.1,3-3.2l25.5-1.5c1.5-0.1,3,1.1,3,2.8l0,56.2l32.2-1.9
			l0-56.2c0-1.7,1.5-3.1,3-3.2l25.5-1.5C1059.4,62,1060.6,63.3,1060.7,65z"/>
		<path style="fill:#FFFFFF;" d="M1174.2,58.8c-0.4,0.9-0.6,1.5-1.1,2l-38.8,77.6l0,65.9c0,1.7-1.3,3.1-3,3.2l-25.5,1.5
			c-1.5,0.1-3-1.1-3-2.8l0-65.9l-38.9-73.1c-0.2-0.4-0.6-1-0.9-1.9c-0.6-1.5,1.3-3.1,3-3.2l27.7-1.6c1.7-0.1,3.2,1.3,3.9,2.8
			l21.1,40.6l20.8-43.1c0.9-1.6,2.4-3.1,4.1-3.2l27.5-1.6C1172.7,55.8,1174.6,57.2,1174.2,58.8z"/>
	</g>
</g>
<g>
	<path style="fill:#FFFFFF;" d="M1191.3,54.5v1.4h-2.4v6.6h-1.7v-6.6h-2.4v-1.4H1191.3z"/>
	<path style="fill:#FFFFFF;" d="M1197.6,54.5h2.4v8h-1.6v-5.4c0-0.2,0-0.4,0-0.7c0-0.3,0-0.5,0-0.6l-1.5,6.7h-1.6l-1.5-6.7
		c0,0.2,0,0.4,0,0.6c0,0.3,0,0.5,0,0.7v5.4h-1.6v-8h2.4l1.5,6.3L1197.6,54.5z"/>
</g>
</svg>
