<svg xmlns="http://www.w3.org/2000/svg" viewBox="0 0 1200 278.9"><path class="ball" fill="#E20203" d="M639.2 34c-12.5-17.6-31-29.2-52.3-32.8-21.2-3.6-42.6 1.3-60.1 13.8-17.6 12.5-29.2 31-32.8 52.3-3.6 21.2 1.3 42.6 13.8 60.1 12.5 17.6 31 29.2 52.3 32.8 4.5.8 9 1.1 13.5 1.1 38.6 0 72.8-27.9 79.5-67.2 3.5-21.2-1.5-42.6-13.9-60.1zM508.3 77.5l56.2 9.5-1 5.8c-17.8-1.5-35.5 2-51.3 10.4-3-8.3-4.3-17-3.9-25.7zM561 108l-5.9 35.2c-14.7-4.3-27.2-13.5-35.8-26.3 12.8-6.9 27.2-9.9 41.7-8.9zm17.8-12.7l1-5.8L636 99c-2.5 8.4-6.6 16.2-12.1 22.9-12.3-13-27.7-22.2-45.1-26.6zm-2.6 15.3c14.1 3.8 26.6 11.4 36.5 22-12.3 9.3-27.2 13.9-42.5 13.1l6-35.1zm-65.3-48.3c2.4-8.3 6.5-16 12-22.7 12.3 13.1 27.8 22.2 45.2 26.5l-1 5.7-56.2-9.5zm23-33.5c12.3-9.4 27.3-14.1 42.7-13.3l-6 35.2c-14-3.7-26.6-11.2-36.7-21.9zm49.4 39.7c17.8 1.4 35.4-2.2 51.2-10.6 3.1 8.3 4.5 17.1 4 25.9l-56.2-9.5 1-5.8zm2.6-15.3l5.9-35.1c14.6 4.3 27.1 13.4 35.6 26.1-12.7 6.9-27 10-41.5 9z"/><g class="word" fill="#FFF"><path class="word-hoops" d="M97.4 114.9l.1 147.1c0 1.8-1.3 3.1-3.1 3.3l-26.1 1.5c-1.5.1-3.1-1.1-3.1-2.9v-57.5l-32.9 1.9v57.5c0 1.8-1.5 3.2-3.1 3.3l-26.1 1.5c-1.8.1-3.1-1.1-3.1-2.9V120.6c0-1.8 1.3-3.1 3.1-3.3l26.1-1.5c1.5-.1 3.1 1.1 3.1 2.9v57.5l32.9-1.9v-57.5c0-1.8 1.5-3.2 3.1-3.3l26.1-1.5c1.7-.1 3 1.1 3 2.9zm110 123.4s.4 3-2.2 5.8l-12.5 13c-2.6 2.8-5.5 2.7-5.5 2.7l-56.8 3.3s-3.1.4-5.7-2.1l-12.3-11.6c-2.6-2.5-2.4-5.6-2.4-5.6l-.1-112.5s-.2-3.1 2.4-5.8l12.3-13c2.6-3 5.7-2.7 5.7-2.7l56.6-3.3s3.1-.6 5.7 2.1l12.5 11.5c2.6 2.5 2.2 5.6 2.2 5.6l.1 112.6zm-59.5-97.2c-.2 0-.9.1-1.3.7l-3.7 3.7c-.7.9-.7 1.8-.7 1.8v78.3c0 .4.2.9.7 1.5l3.1 2.9 25.4-1.5 3.1-3.3c.7-.7.7-1.1.7-1.6v-78.3s.2-.9-.7-1.7l-3.5-3.3c-.7-.6-1.3-.6-1.5-.6l-21.6 1.4zm168.3 90.8s.4 3-2.2 5.8l-12.5 13c-2.6 2.8-5.5 2.7-5.5 2.7l-56.8 3.3s-3.1.4-5.7-2.1L221.2 243c-2.6-2.5-2.4-5.6-2.4-5.6l-.1-112.5s-.2-3.1 2.4-5.8l12.3-13c2.6-3 5.7-2.7 5.7-2.7l56.6-3.3s3.1-.6 5.7 2.1l12.5 11.5c2.6 2.5 2.2 5.6 2.2 5.6l.1 112.6zm-59.5-97.2c-.2 0-.9.1-1.3.7l-3.7 3.7c-.7.9-.7 1.8-.7 1.8v78.3c0 .4.2.9.7 1.5l3.1 2.9 25.4-1.5 3.1-3.3c.7-.7.7-1.1.7-1.6v-78.3s.2-.9-.7-1.7l-3.5-3.3c-.7-.6-1.3-.6-1.5-.6l-21.6 1.4zm166.1 34.2l-.2.2h.2s.2 3.1-2.4 5.8l-12.3 13.2c-2.6 2.8-5.7 2.5-5.7 2.5l-40.6 2.4v53.3c0 1.5-1.5 3.2-3.3 3.3l-25.9 1.5c-1.8.1-3.1-1.3-3.1-2.9l-.1-147.2c0-1.8 1.3-3.1 3.1-3.3l69.7-4.1s3.1-.6 5.7 1.9l12.3 11.8c2.6 2.5 2.4 5.6 2.4 5.6l.2 56zm-60.9-8.1l22.6-1.3s.9.2 1.8-.8l3.7-3.7c.7-.9.7-1.8.7-1.8v-20.6s0-.9-.7-1.5l-3.7-3.5c-.9-.6-1.8-.6-1.8-.6l-22.6 1.3v32.5zm172.4-54.2l.2.2v22.6c0 1.8-1.5 3.2-3.3 3.3l-25.9 1.5c-1.8.1-3.1-1.1-3.1-2.9v-11l-27.2 1.6c-.4 0-.9.1-1.5.7l-3.5 3.7c-.9.9-.9 1.8-.9 1.8v17.8l.2-.2s-.2.9.7 1.7l3.1 2.9 41-2.4s3.1-.6 5.7 2.1l12.3 11.6c2.6 2.5 2.4 5.6 2.4 5.6v52s.2 3.1-2.4 5.8l-12.3 13c-2.6 2.8-5.7 2.7-5.7 2.7l-56.8 3.3s-3.1.4-5.7-2.1l-12.3-11.6c-2.6-2.5-2.2-5.6-2.2-5.6s-.2-.2-.2-.4V203c0-1.8 1.5-3.2 3.3-3.3l25.9-1.5c1.8-.1 3.1 1.1 3.1 2.9v9.9l27.6-1.6c.4 0 .7-.3 1.1-.7l3.7-3.7c.7-.9.7-1.8.7-1.8v-16.4s0-.9-.7-1.7l-3.7-3.3c-.4-.4-.7-.6-1.1-.6l-39.5 2.3s-3.1.4-5.7-2.1l-12.3-11.6c-2.6-2.5-2.2-5.6-2.2-5.6h-.2v-52h.2s-.4-3 2.2-5.8l12.3-13c2.6-3 5.7-2.7 5.7-2.7l56.8-3.3s3.1-.6 5.7 2.1l12.3 11.6c2.6 2.5 2.4 5.6 2.4 5.6l-.2-.1z"/><path class="word-worthy" d="M656.2 269.8v.7c-.2.9-.7 1.6-1.3 2.1-.2 0-.2.2-.4.2 0 0-.2.2-.7.3 0 0-.2.2-.4.2l-27.4 1.6c-1.5.1-2.6-1.2-3.1-2.9l-15.4-54.4-1.5-10.9-1.3 11-17.2 56.3c-.7 2-1.5 3.2-3.3 3.3l-27.4 1.6c-.2 0-.2-.2-.4-.2s-.4-.2-.7-.2c-.2 0-.2-.2-.2-.2-.9-.4-1.3-1-1.3-1.9-.2 0-.2-.2-.2-.2v-.4L542.3 130c0-1.5 1.3-3.1 3.1-3.3l25.9-1.5c1.8-.1 3.3 1.3 3.3 2.9l5.3 74.3 12.5-65.9c.7-1.6 2.2-3.2 3.9-3.3l17.5-1c1.8-.1 3.3 1.3 4.2 2.8l12.3 64.4 5.4-74.9c0-1.5 1.3-3.1 3.1-3.3l26.1-1.5c1.5-.1 3.1 1.4 3.1 2.9l-11.8 147.2zm118-24.1s.4 3-2.2 5.8l-12.5 13c-2.6 2.8-5.5 2.7-5.5 2.7l-56.8 3.3s-3.1.4-5.7-2.1L679.3 257c-2.6-2.5-2.4-5.6-2.4-5.6l-.1-112.5s-.2-3.1 2.4-5.8l12.3-13c2.6-3 5.7-2.7 5.7-2.7l56.6-3.3s3.1-.6 5.7 2.1l12.5 11.5c2.6 2.5 2.2 5.6 2.2 5.6v112.4zm-59.5-97.2c-.2 0-.9.1-1.3.7l-3.7 3.7c-.7.9-.7 1.8-.7 1.8V233c0 .4.2.9.7 1.5l3.1 2.9 25.4-1.5 3.1-3.3c.7-.7.7-1.1.7-1.6v-78.3s.2-.9-.7-1.7l-3.5-3.3c-.7-.6-1.3-.6-1.5-.6l-21.6 1.4zm165.7 34.7s.4 3-2.2 5.8l-12.5 13.2-.7.5 22.4 53.7c.4 1.5-1.5 3.2-3.1 3.3l-29.4 1.7c-1.8.1-3.3-1.3-3.9-2.8l-21.5-52-10.1.6v53.3c0 1.5-1.3 3.1-3.1 3.3l-26.1 1.5c-1.5.1-3.1-1.4-3.1-2.9l-.1-147.2c0-1.8 1.5-3.2 3.1-3.3l69.7-4.1s3.1-.6 5.7 1.9l12.5 11.8c2.6 2.5 2.2 6 2.2 6l.2 55.7zm-61-8.3l23-1.3c.2 0 .9-.1 1.5-.8l3.5-3.7c.9-.9.7-1.8.7-1.8v-20.6s.2-.9-.7-1.7l-3.5-3.3c-.9-.8-1.8-.5-1.8-.5l-22.8 1.3.1 32.4zM980.1 104v25.9c0 1.8-1.5 3.2-3.3 3.3l-27.9 1.6.1 118c-.2 1.5-1.5 2.7-3.1 2.8l-25.9 1.5c-1.5.1-2.8-.9-3.1-2.5l-.1-118-27.9 1.6c-1.8.1-3.3-1.1-3.3-2.9v-25.9c0-1.8 1.5-3.4 3.3-3.5l87.7-5.1c2 0 3.5 1.5 3.5 3.2zm103.8-7.1l.1 147.2c0 1.8-1.3 3.1-3.1 3.3l-26.1 1.5c-1.5.1-3.1-1.1-3.1-2.9v-57.5l-32.9 1.9v57.5c0 1.8-1.5 3.2-3.1 3.3l-26.1 1.5c-1.8.1-3.1-1.1-3.1-2.9l-.1-147.2c0-1.8 1.3-3.1 3.1-3.3l26.1-1.5c1.5-.1 3.1 1.1 3.1 2.9v57.5l32.9-1.9V98.8c0-1.8 1.5-3.2 3.1-3.3l26.1-1.5c1.8-.1 3.1 1.2 3.1 2.9zm116-6.3c-.4.9-.7 1.6-1.1 2l-39.7 79.3v67.3c0 1.8-1.3 3.1-3.1 3.3l-26.1 1.5c-1.5.1-3.1-1.1-3.1-2.9v-67.3l-39.7-74.7c-.2-.4-.7-1.1-.9-1.9-.7-1.5 1.3-3.1 3.1-3.3l28.3-1.7c1.8-.1 3.3 1.3 4 2.8l21.5 41.5 21.2-44c.9-1.6 2.4-3.2 4.2-3.3l28.1-1.6c1.8 0 3.8 1.4 3.3 3z"/></g></svg>