<?xml version="1.0" encoding="utf-8"?>
<!-- Generator: Adobe Illustrator 19.1.0, SVG Export Plug-In . SVG Version: 6.00 Build 0)  -->
<!DOCTYPE svg PUBLIC "-//W3C//DTD SVG 1.1//EN" "http://www.w3.org/Graphics/SVG/1.1/DTD/svg11.dtd">
<svg version="1.1" id="Layer_1" xmlns="http://www.w3.org/2000/svg" xmlns:xlink="http://www.w3.org/1999/xlink" x="0px" y="0px"
	 viewBox="0 0 512 512" style="enable-background:new 0 0 512 512;" xml:space="preserve">
<path id="ball" style="fill:#E01F26;" d="M464.5,107.8C424.9,52,366,15,298.7,3.6C231.4-7.8,163.6,7.8,107.8,47.5S15,146,3.6,213.3
	c-11.4,67.3,4.2,135.1,43.8,190.9S146,497,213.3,508.4c14.4,2.4,28.7,3.6,42.8,3.6c122.5,0,231.1-88.5,252.2-213.3
	C519.7,231.4,504.2,163.6,464.5,107.8z M49.3,245.9l178.5,30.2l-3.1,18.4c-56.7-4.9-112.6,6.4-162.9,32.9
	C52.2,301.4,47.9,273.5,49.3,245.9z M216.5,342.9l-18.9,111.7c-46.6-13.7-86.5-43-113.6-83.6C124.9,349.3,170.3,339.7,216.5,342.9z
	 M272.9,302.6l3.1-18.4l178.5,30.2c-7.8,26.5-20.9,51.4-38.5,72.7C377.2,345.6,328.1,316.6,272.9,302.6z M264.7,351.1
	c44.7,12.1,84.5,36.1,116,70c-39,29.5-86.3,44.2-134.9,41.7L264.7,351.1z M57.5,197.6c7.7-26.2,20.7-50.9,38-72.1
	c39,41.4,88.4,70.3,143.6,84.1l-3.1,18.2L57.5,197.6z M130.6,91.5c39.1-29.9,86.6-44.7,135.6-42.2l-18.9,111.8
	C202.4,149.2,162.3,125.4,130.6,91.5z M287.3,217.5c56.6,4.6,112.5-6.9,162.6-33.6c9.8,26.2,14.1,54.3,12.8,82.3L284.2,236
	L287.3,217.5z M295.5,169l18.9-111.5c46.3,13.6,86,42.7,113.1,82.9C386.9,162.1,341.6,171.9,295.5,169z"/>
</svg>
